/* XPM */
static char * icon_new_xpm[] = {
"48 48 256 2",
"  	c #528394",
". 	c #0C78A0",
"+ 	c #D2E3EE",
"@ 	c #2FCCFB",
"# 	c #005574",
"$ 	c #C2DCEE",
"% 	c #75B7D6",
"& 	c #D9EEFA",
"* 	c #B2CFE0",
"= 	c #BBD7EB",
"- 	c #115E7B",
"; 	c #0087C6",
"> 	c #00779C",
", 	c #E1F4FD",
"' 	c #CFE3ED",
") 	c #F9F9FA",
"! 	c #E2EAED",
"~ 	c #80D4F7",
"{ 	c #004968",
"] 	c #CDDFEB",
"^ 	c #81ADCC",
"/ 	c #B4D6ED",
"( 	c #A2DFFA",
"_ 	c #BAD2E1",
": 	c #F5F8FA",
"< 	c #F4F6F7",
"[ 	c #648D9F",
"} 	c #8CCFEC",
"| 	c #DEF1FA",
"1 	c #C5D4DC",
"2 	c #007BB2",
"3 	c #D6EBF7",
"4 	c #CEE6F3",
"5 	c #00B5EE",
"6 	c #E1EDF4",
"7 	c #1389AC",
"8 	c #FEFEFF",
"9 	c #237DA7",
"0 	c #99C5DE",
"a 	c #B6D3E2",
"b 	c #326275",
"c 	c #77A3B7",
"d 	c #BECED6",
"e 	c #2F6D83",
"f 	c #C2D0D8",
"g 	c #A8CCDC",
"h 	c #F9FBFC",
"i 	c #9DB3BD",
"j 	c #F2F6F9",
"k 	c #006787",
"l 	c #AFCCDE",
"m 	c #518DB4",
"n 	c #67A6C4",
"o 	c #E0F2FC",
"p 	c #B5D2E7",
"q 	c #71A4C6",
"r 	c #BDE6FB",
"s 	c #0075AE",
"t 	c #8ABFDE",
"u 	c #7DA0AE",
"v 	c #578FA4",
"w 	c #98BCD8",
"x 	c #006E9F",
"y 	c #C4D1D7",
"z 	c #86B0CF",
"A 	c #EAEFF2",
"B 	c #D9E1E5",
"C 	c #006D8F",
"D 	c #006C99",
"E 	c #0A97C9",
"F 	c #F4F7FA",
"G 	c #C9E1F0",
"H 	c #D1E8F5",
"I 	c #DBF0FA",
"J 	c #005E8B",
"K 	c #0082BE",
"L 	c #A4BAC4",
"M 	c #9FC3DC",
"N 	c #85A0AD",
"O 	c #F2FAFE",
"P 	c #95B0BB",
"Q 	c #4794B4",
"R 	c #005B88",
"S 	c #D1E6F3",
"T 	c #EEF5FA",
"U 	c #E9F5FB",
"V 	c #95BBD7",
"W 	c #0C6483",
"X 	c #B2E3FB",
"Y 	c #679CBE",
"Z 	c #A2B8C3",
"` 	c #8CB8CE",
" .	c #4487AF",
"..	c #2E8EAE",
"+.	c #90BCD2",
"@.	c #005372",
"#.	c #3E778C",
"$.	c #005E83",
"%.	c #008BC8",
"&.	c #00A0DF",
"*.	c #007496",
"=.	c #6F94A5",
"-.	c #B2C5CF",
";.	c #64A3BE",
">.	c #8AC3E3",
",.	c #92A8B3",
"'.	c #005D7F",
").	c #FCFCFD",
"!.	c #FBFCFC",
"~.	c #A4C7E0",
"{.	c #95CBEC",
"].	c #B4C8CF",
"^.	c #F7FCFF",
"/.	c #EFF3F5",
"(.	c #D7E3E8",
"_.	c #CED9DE",
":.	c #859AA5",
"<.	c #70A1C4",
"[.	c #6598BE",
"}.	c #A7BEC7",
"|.	c #91B7D0",
"1.	c #005772",
"2.	c #7D929D",
"3.	c #1A9BCD",
"4.	c #004E6D",
"5.	c #FDFEFE",
"6.	c #F8FCFF",
"7.	c #A2C5DE",
"8.	c #EDF1F4",
"9.	c #EFF3F7",
"0.	c #D5E8F2",
"a.	c #92AAB5",
"b.	c #78AFC8",
"c.	c #8DB5D3",
"d.	c #DAEEF7",
"e.	c #005881",
"f.	c #A8E3FC",
"g.	c #00B0DF",
"h.	c #C8D6DD",
"i.	c #ADCEE3",
"j.	c #55AFD5",
"k.	c #9AC2D6",
"l.	c #BEE8FD",
"m.	c #4F9DC1",
"n.	c #EDF3F7",
"o.	c #DBE5EB",
"p.	c #19667D",
"q.	c #F5FBFE",
"r.	c #0070A6",
"s.	c #E7F0F5",
"t.	c #B6C4CB",
"u.	c #B4C7D1",
"v.	c #CCE4F3",
"w.	c #0085BA",
"x.	c #C5DCE8",
"y.	c #8EC1DE",
"z.	c #CBDFE8",
"A.	c #4A7E90",
"B.	c #73ABC4",
"C.	c #6EAED1",
"D.	c #00A2E2",
"E.	c #75A4C6",
"F.	c #7CB1CA",
"G.	c #7BB9DB",
"H.	c #006C8F",
"I.	c #BCDEF3",
"J.	c #008CCB",
"K.	c #BCECFE",
"L.	c #759CAE",
"M.	c #10C0EF",
"N.	c #00577D",
"O.	c #00A7D1",
"P.	c #005876",
"Q.	c #42D3FF",
"R.	c #E6F7FF",
"S.	c #00A1DB",
"T.	c #0084A9",
"U.	c #C8E9FA",
"V.	c #D5F8FF",
"W.	c #E8F2F8",
"X.	c #92D6F5",
"Y.	c #E8F6FF",
"Z.	c #EDF3F8",
"`.	c #8FC6E9",
" +	c #D6E0E4",
".+	c #9ACEE8",
"++	c #E9F1F5",
"@+	c #ECF1F2",
"#+	c #407F98",
"$+	c #006B92",
"%+	c #88A6B1",
"&+	c #9FB7C3",
"*+	c #009CCB",
"=+	c #CBE7F1",
"-+	c #CBE5F7",
";+	c #005074",
">+	c #B0D3E4",
",+	c #D1DBDF",
"'+	c #B2D2E7",
")+	c #009ECB",
"!+	c #054A63",
"~+	c #FCFDFD",
"{+	c #347FA9",
"]+	c #00B6E9",
"^+	c #00C4F9",
"/+	c #00C1F4",
"(+	c #F0F4F7",
"_+	c #006291",
":+	c #006290",
"<+	c #8FC3E1",
"[+	c #007FA2",
"}+	c #5C94BA",
"|+	c #9EC1DB",
"1+	c #5D9CB9",
"2+	c #B4DCEF",
"3+	c #AFC3CB",
"4+	c #D8E7F0",
"5+	c #A3C8DB",
"6+	c #9DBDCD",
"7+	c #00AFE8",
"8+	c #00B6ED",
"9+	c #0094D3",
"0+	c #BFDFF4",
"a+	c #009DD7",
"b+	c #85BBD4",
"c+	c #93BDD2",
"d+	c #92BFD4",
"e+	c #C6E2EC",
"f+	c #3B82AB",
"g+	c #348EB1",
"h+	c #6ED2F9",
"i+	c #4499BB",
"j+	c #63808F",
"k+	c #3E9ABF",
"l+	c #FBFFFF",
"m+	c #4A99B5",
"n+	c #59A0BB",
"o+	c #B1C2CD",
"p+	c #05536C",
"q+	c #3BBFEE",
"r+	c #AABDC6",
"s+	c #81C9E8",
"t+	c #57A3C6",
"u+	c #5BA7CB",
"v+	c #A3BAC6",
"w+	c #59BFE4",
"x+	c #9FD4EB",
"y+	c #AED5E9",
"z+	c #DAE4E9",
"A+	c #68818F",
"B+	c #DCE5EA",
"C+	c #407489",
"D+	c #A1CFEB",
"E+	c #DCEAF2",
"F+	c #F1FDFF",
"G+	c #FFFFFF",
"G+G+G+G+G+G+G+G+G+G+G+G+G+G+G+G+G+G+G+G+G+G+G+G+G+G+G+G+G+G+G+G+G+G+G+G+G+G+G+G+G+G+G+G+G+G+G+G+",
"G+G+G+G+G+G+G+G+G+G+G+G+G+G+G+G+G+G+G+G+G+G+G+G+G+G+G+G+G+G+G+G+G+G+G+G+G+G+G+G+G+G+G+G+G+G+G+G+",
"G+G+G+G+G+G+G+G+G+G+G+G+G+G+G+G+G+G+G+G+G+G+G+G+G+G+G+G+G+G+G+G+G+G+G+G+G+G+G+G+G+G+G+G+G+G+G+G+",
"G+G+G+G+G+G+G+G+G+G+G+G+G+G+G+G+G+G+G+G+G+G+G+G+G+G+G+G+G+G+G+G+G+G+G+G+G+G+G+G+G+G+G+G+G+G+G+G+",
"G+G+G+G+G+G+G+G+G+G+G+G+G+G+G+G+G+G+G+G+G+G+G+G+G+G+G+G+G+G+G+G+G+G+G+G+G+G+G+G+G+G+G+G+G+G+G+G+",
"G+G+G+G+G+G+G+G+G+G+G+G+G+G+G+G+G+G+G+G+G+G+G+G+G+G+G+G+G+G+G+G+G+G+G+G+G+G+G+G+G+G+G+G+G+G+G+G+",
"G+G+G+G+G+G+G+G+G+G+G+G+G+G+G+G+G+G+) f f P u u u P P f < < G+G+G+G+G+G+G+G+G+G+G+G+G+G+G+G+G+G+",
"G+G+G+G+G+G+G+G+G+G+G+G+G+G+G+G+y y [ #+#+v c c #+;+;+W [ [ d G+G+G+G+G+G+G+G+G+G+G+G+G+G+G+G+G+",
"G+G+G+G+G+G+G+G+G+G+G+G+G+G+G+G+y y [ #+#+v c c #+;+;+W [ [ d G+G+G+G+G+G+G+G+G+G+G+G+G+G+G+G+G+",
"G+G+G+G+G+G+G+G+G+G+G+G+G+B B C+v v z.G+G+G+G+G++.D D . :+:+$.#.#.,+G+G+G+G+G+G+G+G+G+G+G+G+G+G+",
"G+G+G+G+G+G+G+G+G+G+G+G+r+- - _ G+G+G+G+G+G+G+G+|. . .f+Y Y W.e+e+W i i G+G+G+G+G+G+G+G+G+G+G+G+",
"G+G+G+G+G+G+G+G+G+G+G+G+r+- - _ G+G+G+G+G+G+G+G+|. . .f+Y Y W.e+e+W i i G+G+G+G+G+G+G+G+G+G+G+G+",
"G+G+G+G+G+G+G+G+G+G+L L '.=+=+l+Y.Y.R.0.0.* l l w <.<.|._ _ ] F+F+K.H.H.i G+G+G+G+G+G+G+G+G+G+G+",
"G+G+G+G+G+G+G+G+G+_.@.@.x+V.V.l.r r y+>+>+S T T ] V V + + + t q q y.j.j.# y y G+G+G+G+G+G+G+G+G+",
"G+G+G+G+G+G+G+G+G+_.@.@.x+V.V.l.r r y+>+>+S T T ] V V + + + t q q y.j.j.# y y G+G+G+G+G+G+G+G+G+",
"G+G+G+G+G+G+G+G+G+e k+k+} % % b+0 0 l v.v.4 / / '+p p ~.w w z <.<.m {+{+D e e ~+G+G+G+G+G+G+G+G+",
"G+G+G+G+G+G+G+3+3+N.7 7 Q B.B.k.a a ' E+E+++S S v.G G $ p p 7.c.c.<.m m 9 $.$.L G+G+G+G+G+G+G+G+",
"G+G+G+G+G+G+G+3+3+N.7 7 Q B.B.k.a a ' E+E+++S S v.G G $ p p 7.c.c.<.m m 9 $.$.L G+G+G+G+G+G+G+G+",
"G+G+G+G+G+G+G+A.A.$+....n d+d+a ' ' s.F F 5.U U & 3 3 H G G p M M z Y Y  .D D #.G+G+G+G+G+G+G+G+",
"G+G+G+G+G+G+@+1.1.> m+m+F.5+5+x.6 6 : 8 8 G+O O o | | I H H $ i.i.V E.E.m . . @.! ! G+G+G+G+G+G+",
"G+G+G+G+G+G+@+1.1.> m+m+F.5+5+x.6 6 : 8 8 G+O O o | | I H H $ i.i.V E.E.m . . @.! ! G+G+G+G+G+G+",
"G+G+G+G+G+G+_.4.4.. n+n+` * * + Z.Z.).G+G+G+^.^., , , o & & v./ / |+^ ^ }+9 9 # d d G+G+G+G+G+G+",
"G+G+G+G+G+G+].# # 7 ;.;.+.a a 4+j j 5.G+G+G+6.6., , , , I I H = = 7.^ ^ [.9 9 P.}.}.G+G+G+G+G+G+",
"G+G+G+G+G+G+].# # 7 ;.;.+.a a 4+j j 5.G+G+G+6.6., , , , I I H = = 7.^ ^ [.9 9 P.}.}.G+G+G+G+G+G+",
"G+G+G+G+G+G+-.# # O.;.;.c+a a E+F F 8 G+G+G+6.6., , , , | | H = = ~.z z [.> > P.}.}.G+G+G+G+G+G+",
"G+G+G+G+G+G+f 4.4.g.w+w+` * * 4+T T 5.G+G+G+^.^., , , , I I 4 = = 7.z z Q *.*.# ].].G+G+G+G+G+G+",
"G+G+G+G+G+G+f 4.4.g.w+w+` * * 4+T T 5.G+G+G+^.^., , , , I I 4 = = 7.z z Q *.*.# ].].G+G+G+G+G+G+",
"G+G+G+G+G+G+! { { )+Q.Q.s+g g ] s.s.h 8 8 G+q.q.o , , | 3 3 G p p w n n 7 C C 4. + +G+G+G+G+G+G+",
"G+G+G+G+G+G+G+b b T.@ @ h+X.X.2+0.0.n.!.!.G+O O | | | d.4 4 = 0 0 C.i+i+[+k k p.!.!.G+G+G+G+G+G+",
"G+G+G+G+G+G+G+b b T.@ @ h+X.X.2+0.0.n.!.!.G+O O | | | d.4 4 = 0 0 C.i+i+[+k k p.!.!.G+G+G+G+G+G+",
"G+G+G+G+G+G+G+%+%+$./+/+@ ~ ~ ( X X U.I I U -+-+0+I.I./ D+D+>.% % t+....*.P.P.u G+G+G+G+G+G+G+G+",
"G+G+G+G+G+G+G+A A '.*+*+^+M.M.~ ( ( X l.l.r {.{.{.{.{.`.>.>.G.m.m.g+[+[+k 1.1.! G+G+G+G+G+G+G+G+",
"G+G+G+G+G+G+G+A A '.*+*+^+M.M.~ ( ( X l.l.r {.{.{.{.{.`.>.>.G.m.m.g+[+[+k 1.1.! G+G+G+G+G+G+G+G+",
"G+G+G+G+G+G+G+G+G+6+_+_+]+5 5 7+q+q+~ f.f..+t t <+t t G.u+u+9 J J > C C 4.a.a.G+G+G+G+G+G+G+G+G+",
"G+G+G+G+G+G+G+G+G+G+c c x 8+8+5 D.D.&.S.S.E 3.3.3.E E w.x x R R R C 4.4.[ G+G+G+G+G+G+G+G+G+G+G+",
"G+G+G+G+G+G+G+G+G+G+c c x 8+8+5 D.D.&.S.S.E 3.3.3.E E w.x x R R R C 4.4.[ G+G+G+G+G+G+G+G+G+G+G+",
"G+G+G+G+G+G+G+G+G+G+: : 1+s s a+&.&.9+; ; ; ; ; ; K K 2 x x J R R {     < G+G+G+G+G+G+G+G+G+G+G+",
"G+G+G+G+G+G+G+G+G+G+G+G+) b.b.2 K K %.%.%.%.%.%.; K K 2 x x R e.e.=.< < G+G+G+G+G+G+G+G+G+G+G+G+",
"G+G+G+G+G+G+G+G+G+G+G+G+) b.b.2 K K %.%.%.%.%.%.; K K 2 x x R e.e.=.< < G+G+G+G+G+G+G+G+G+G+G+G+",
"G+G+G+G+G+G+G+!.!./.o.o.1 t.t.L.. . 2 ; ; J.%.%.; K K r.J J W =.=.o+f f (.8.8.) G+G+G+G+G+G+G+G+",
"G+G+G+G+G+G+G+h h /.B+B+f v+v+N A+A+b p+p+@.;+;+;+{ { !+b b j+N N &+d d (.8.8.) G+G+G+G+G+G+G+G+",
"G+G+G+G+G+G+G+h h /.B+B+f v+v+N A+A+b p+p+@.;+;+;+{ { !+b b j+N N &+d d (.8.8.) G+G+G+G+G+G+G+G+",
"G+G+G+G+G+G+G+G+G+~+: : A z+z+h.u.u.Z ,.,.:.2.2.2.:.:.,.&+&+-.1 1 (.A A < !.!.G+G+G+G+G+G+G+G+G+",
"G+G+G+G+G+G+G+G+G+G+G+G+G+G+G+5.!.!.: j j (+9.9.9.(+(+j : : h ~+~+G+G+G+G+G+G+G+G+G+G+G+G+G+G+G+",
"G+G+G+G+G+G+G+G+G+G+G+G+G+G+G+5.!.!.: j j (+9.9.9.(+(+j : : h ~+~+G+G+G+G+G+G+G+G+G+G+G+G+G+G+G+",
"G+G+G+G+G+G+G+G+G+G+G+G+G+G+G+G+G+G+G+G+G+G+G+G+G+G+G+G+G+G+G+G+G+G+G+G+G+G+G+G+G+G+G+G+G+G+G+G+",
"G+G+G+G+G+G+G+G+G+G+G+G+G+G+G+G+G+G+G+G+G+G+G+G+G+G+G+G+G+G+G+G+G+G+G+G+G+G+G+G+G+G+G+G+G+G+G+G+",
"G+G+G+G+G+G+G+G+G+G+G+G+G+G+G+G+G+G+G+G+G+G+G+G+G+G+G+G+G+G+G+G+G+G+G+G+G+G+G+G+G+G+G+G+G+G+G+G+"};
